<svg xmlns="http://www.w3.org/2000/svg" border="0" data-ac-wrapper-id="4" width="600px" height="600px" style="display: block;" class="anychart-ui-support" role="presentation"><defs><clipPath clip-rule="nonzero" id="ac_clip_1"><path data-ac-wrapper-id="46" fill="none" stroke="black" d="M 0 0 L 570 0 570 26 0 26 0 0 Z"></path></clipPath><linearGradient id="ac_linearGradient_2" x1="0" y1="1" x2="1" y2="5.551115123125783e-17" gradientunits="objectBoundingBox"><stop offset="0" style="stop-color:#3084d7;stop-opacity:1"></stop><stop offset="0.5" style="stop-color:#2d7fd0;stop-opacity:1"></stop><stop offset="1" style="stop-color:#186fc5;stop-opacity:1"></stop></linearGradient><linearGradient id="ac_linearGradient_3" x1="0" y1="1" x2="1" y2="5.551115123125783e-17" gradientunits="objectBoundingBox"><stop offset="0" style="stop-color:#586b74;stop-opacity:1"></stop><stop offset="0.5" style="stop-color:#54676f;stop-opacity:1"></stop><stop offset="1" style="stop-color:#41555e;stop-opacity:1"></stop></linearGradient><linearGradient id="ac_linearGradient_4" x1="0" y1="1" x2="1" y2="5.551115123125783e-17" gradientunits="objectBoundingBox"><stop offset="0" style="stop-color:#f17b1a;stop-opacity:1"></stop><stop offset="0.5" style="stop-color:#ea7617;stop-opacity:1"></stop><stop offset="1" style="stop-color:#e16600;stop-opacity:1"></stop></linearGradient><linearGradient id="ac_linearGradient_5" x1="0.08045018441136009" y1="0" x2="0.9195498155886399" y2="1" gradientunits="objectBoundingBox"><stop offset="0" style="stop-color:#ffd54f;stop-opacity:1"></stop><stop offset="1" style="stop-color:#e8c248;stop-opacity:1"></stop></linearGradient><linearGradient id="ac_linearGradient_6" x1="0" y1="1" x2="1" y2="5.551115123125783e-17" gradientunits="objectBoundingBox"><stop offset="0" style="stop-color:#ffd961;stop-opacity:1"></stop><stop offset="0.5" style="stop-color:#f7d25d;stop-opacity:1"></stop><stop offset="1" style="stop-color:#f0c84a;stop-opacity:1"></stop></linearGradient><linearGradient id="ac_linearGradient_7" x1="0.08045018441136009" y1="0" x2="0.9195498155886399" y2="1" gradientunits="objectBoundingBox"><stop offset="0" style="stop-color:#455a64;stop-opacity:1"></stop><stop offset="1" style="stop-color:#3f525b;stop-opacity:1"></stop></linearGradient><linearGradient id="ac_linearGradient_8" x1="0.08045018441136009" y1="0" x2="0.9195498155886399" y2="1" gradientunits="objectBoundingBox"><stop offset="0" style="stop-color:#ef6c00;stop-opacity:1"></stop><stop offset="1" style="stop-color:#d96200;stop-opacity:1"></stop></linearGradient><linearGradient id="ac_linearGradient_9" x1="0.08045018441136009" y1="0" x2="0.9195498155886399" y2="1" gradientunits="objectBoundingBox"><stop offset="0" style="stop-color:#1976d2;stop-opacity:1"></stop><stop offset="1" style="stop-color:#176cbf;stop-opacity:1"></stop></linearGradient><linearGradient id="ac_linearGradient_a" x1="0.08045018441136009" y1="0" x2="0.9195498155886399" y2="1" gradientunits="objectBoundingBox"><stop offset="0" style="stop-color:#96a6a6;stop-opacity:1"></stop><stop offset="1" style="stop-color:#899797;stop-opacity:1"></stop></linearGradient><linearGradient id="ac_linearGradient_b" x1="0.08045018441136009" y1="0" x2="0.9195498155886399" y2="1" gradientunits="objectBoundingBox"><stop offset="0" style="stop-color:#64b5f6;stop-opacity:1"></stop><stop offset="1" style="stop-color:#5ba5e0;stop-opacity:1"></stop></linearGradient><clipPath clip-rule="nonzero" id="ac_clip_d"><path data-ac-wrapper-id="85" fill="none" stroke="black" d="M 10 39.4453125 L 580 39.4453125 580 559 10 559 10 39.4453125 Z"></path></clipPath></defs><g data-ac-wrapper-id="5"><g data-ac-wrapper-id="26" aria-hidden="true"><g data-ac-wrapper-id="27"><path data-ac-wrapper-id="28" fill="#ffffff" stroke="none" d="M 0 0 L 600 0 600 0 600 600 600 600 0 600 0 600 0 0 0 0 Z"></path></g><g data-ac-wrapper-id="47"><path data-ac-wrapper-id="48" fill="#4984b3" stroke="#4984b3" d="M 295 299.22265625 L 411.56373471083805 213.4574956524968 411.56373471083805 258.1391987774968 295 343.904359375 295 299.22265625 Z"></path><path data-ac-wrapper-id="49" fill="none" stroke="none" d="M 295 299.22265625 L 411.56373471083805 213.4574956524968 411.56373471083805 258.1391987774968 295 343.904359375 295 299.22265625 Z"></path><path data-ac-wrapper-id="50" fill="#6e7979" stroke="#6e7979" d="M 295 299.22265625 L 113.799740319671 240.4156777017587 113.799740319671 285.0973808267587 295 343.904359375 295 299.22265625 Z"></path><path data-ac-wrapper-id="51" fill="none" stroke="none" d="M 295 299.22265625 L 113.799740319671 240.4156777017587 113.799740319671 285.0973808267587 295 343.904359375 295 299.22265625 Z"></path><path data-ac-wrapper-id="52" fill="url(#ac_linearGradient_2)" stroke="url(#ac_linearGradient_2)" stroke-opacity="1" d="M 518.4085156250001 299.22265625 A 223.408515625 100.53383203125 0 0 1 510.46634289288056 325.79073204079845 L 510.4663428945313 370.47243516589845 A 223.408515625 100.53383203125 0 0 0 518.4085156250001 343.90435937500007 L 518.4085156250001 299.22265625 Z"></path><path data-ac-wrapper-id="53" fill="none" stroke="none" d="M 518.4085156250001 299.22265625 A 223.408515625 100.53383203125 0 0 1 510.46634289288056 325.79073204079845 L 510.4663428945313 370.47243516589845 A 223.408515625 100.53383203125 0 0 0 518.4085156250001 343.90435937500007 L 518.4085156250001 299.22265625 Z"></path><path data-ac-wrapper-id="54" fill="url(#ac_linearGradient_3)" stroke="url(#ac_linearGradient_3)" stroke-opacity="1" d="M 80.38260946484374 327.146933435 A 223.408515625 100.53383203125 0 0 1 71.59148437500002 299.22265625 L 71.591484375 343.904359375 A 223.408515625 100.53383203125 0 0 0 80.38260946248022 371.8286365601507 L 80.38260946484374 327.146933435 Z"></path><path data-ac-wrapper-id="55" fill="none" stroke="none" d="M 80.38260946484374 327.146933435 A 223.408515625 100.53383203125 0 0 1 71.59148437500002 299.22265625 L 71.591484375 343.904359375 A 223.408515625 100.53383203125 0 0 0 80.38260946248022 371.8286365601507 L 80.38260946484374 327.146933435 Z"></path><path data-ac-wrapper-id="56" fill="#135799" stroke="#135799" d="M 295 299.22265625 L 510.4662262342564 325.7904603885086 510.4662262342564 370.47216351350863 295 343.904359375 295 299.22265625 Z"></path><path data-ac-wrapper-id="57" fill="none" stroke="none" d="M 295 299.22265625 L 510.4662262342564 325.7904603885086 510.4662262342564 370.47216351350863 295 343.904359375 295 299.22265625 Z"></path><path data-ac-wrapper-id="58" fill="#324249" stroke="#324249" d="M 295 299.22265625 L 80.38231823230635 327.146653888258 80.38231823230635 371.828357013258 295 343.904359375 295 299.22265625 Z"></path><path data-ac-wrapper-id="59" fill="none" stroke="none" d="M 295 299.22265625 L 80.38231823230635 327.146653888258 80.38231823230635 371.828357013258 295 343.904359375 295 299.22265625 Z"></path><path data-ac-wrapper-id="60" fill="url(#ac_linearGradient_4)" stroke="url(#ac_linearGradient_4)" stroke-opacity="1" d="M 510.4663428945313 325.79073204089843 A 223.408515625 100.53383203125 0 0 1 329.8204512453125 398.52796485382817 L 329.8204512453125 443.2096679788281 A 223.408515625 100.53383203125 0 0 0 510.4663428945313 370.4724351658984 L 510.4663428945313 325.79073204089843 Z"></path><path data-ac-wrapper-id="61" fill="none" stroke="none" d="M 510.4663428945313 325.79073204089843 A 223.408515625 100.53383203125 0 0 1 329.8204512453125 398.52796485382817 L 329.8204512453125 443.2096679788281 A 223.408515625 100.53383203125 0 0 0 510.4663428945313 370.4724351658984 L 510.4663428945313 325.79073204089843 Z"></path><path data-ac-wrapper-id="62" fill="#ae4f00" stroke="#ae4f00" d="M 295 299.22265625 L 329.8199348381277 398.52791663839014 329.8199348381277 443.20961976339015 295 343.904359375 295 299.22265625 Z"></path><path data-ac-wrapper-id="63" fill="none" stroke="none" d="M 295 299.22265625 L 329.8199348381277 398.52791663839014 329.8199348381277 443.20961976339015 295 343.904359375 295 299.22265625 Z"></path><path data-ac-wrapper-id="64" fill="url(#ac_linearGradient_5)" stroke="url(#ac_linearGradient_5)" stroke-opacity="1" d="M 295 299.22265625 L 329.8199348381277 398.52791663839014 A 223.408515625 100.53383203125 0 0 1 80.38231823230635 327.146653888258 Z"></path><path data-ac-wrapper-id="65" fill="none" stroke="none" d="M 295 299.22265625 L 329.8199348381277 398.52791663839014 A 223.408515625 100.53383203125 0 0 1 80.38231823230635 327.146653888258 Z"></path><path data-ac-wrapper-id="66" fill="url(#ac_linearGradient_6)" stroke="url(#ac_linearGradient_6)" stroke-opacity="1" d="M 329.8204512453125 398.5279648538281 A 223.408515625 100.53383203125 0 0 1 80.38260946484371 327.14693343500005 L 80.38260946484374 371.82863656 A 223.408515625 100.53383203125 0 0 0 329.82045124531237 443.20966797882807 L 329.8204512453125 398.5279648538281 Z"></path><path data-ac-wrapper-id="67" fill="none" stroke="none" d="M 329.8204512453125 398.5279648538281 A 223.408515625 100.53383203125 0 0 1 80.38260946484371 327.14693343500005 L 80.38260946484374 371.82863656 A 223.408515625 100.53383203125 0 0 0 329.82045124531237 443.20966797882807 L 329.8204512453125 398.5279648538281 Z"></path><path data-ac-wrapper-id="68" fill="url(#ac_linearGradient_7)" stroke="url(#ac_linearGradient_7)" stroke-opacity="1" d="M 295 299.22265625 L 80.38231823230635 327.146653888258 A 223.408515625 100.53383203125 0 0 1 113.799740319671 240.4156777017587 Z"></path><path data-ac-wrapper-id="69" fill="none" stroke="none" d="M 295 299.22265625 L 80.38231823230635 327.146653888258 A 223.408515625 100.53383203125 0 0 1 113.799740319671 240.4156777017587 Z"></path><path data-ac-wrapper-id="70" fill="url(#ac_linearGradient_8)" stroke="url(#ac_linearGradient_8)" stroke-opacity="1" d="M 295 299.22265625 L 510.4662262342564 325.7904603885086 A 223.408515625 100.53383203125 0 0 1 329.8199348381277 398.52791663839014 Z"></path><path data-ac-wrapper-id="71" fill="none" stroke="none" d="M 295 299.22265625 L 510.4662262342564 325.7904603885086 A 223.408515625 100.53383203125 0 0 1 329.8199348381277 398.52791663839014 Z"></path><path data-ac-wrapper-id="72" fill="url(#ac_linearGradient_9)" stroke="url(#ac_linearGradient_9)" stroke-opacity="1" d="M 295 299.22265625 L 411.56373471083805 213.4574956524968 A 223.408515625 100.53383203125 0 0 1 510.4662262342564 325.7904603885086 Z"></path><path data-ac-wrapper-id="73" fill="none" stroke="none" d="M 295 299.22265625 L 411.56373471083805 213.4574956524968 A 223.408515625 100.53383203125 0 0 1 510.4662262342564 325.7904603885086 Z"></path><path data-ac-wrapper-id="74" fill="url(#ac_linearGradient_a)" stroke="url(#ac_linearGradient_a)" stroke-opacity="1" d="M 295 299.22265625 L 113.799740319671 240.4156777017587 A 223.408515625 100.53383203125 0 0 1 294.99999999999994 198.68882421875 Z"></path><path data-ac-wrapper-id="75" fill="none" stroke="none" d="M 295 299.22265625 L 113.799740319671 240.4156777017587 A 223.408515625 100.53383203125 0 0 1 294.99999999999994 198.68882421875 Z"></path><path data-ac-wrapper-id="76" fill="url(#ac_linearGradient_b)" stroke="url(#ac_linearGradient_b)" stroke-opacity="1" d="M 295 299.22265625 L 295 198.68882421875 A 223.408515625 100.53383203125 0 0 1 411.56373471083805 213.4574956524968 Z"></path><path data-ac-wrapper-id="77" fill="none" stroke="none" d="M 295 299.22265625 L 295 198.68882421875 A 223.408515625 100.53383203125 0 0 1 411.56373471083805 213.4574956524968 Z"></path></g><g data-ac-wrapper-id="78" pointer-events="none"></g><g data-ac-wrapper-id="79" clip-path="url(#ac_clip_d)" clipPathunits="userSpaceOnUse"><g data-ac-wrapper-id="80"><text data-ac-wrapper-id="21" font-style="normal" font-variant="normal" font-family="Verdana, Helvetica, Arial, sans-serif" font-size="12" font-weight="normal" fill="#ffffff" letter-spacing="normal" text-decoration="none" direction="ltr" text-anchor="start" style="opacity: 1;" x="378.7673767586052" y="285.47971509438594" aria-hidden="true" pointer-events="none"><tspan dy="0">20.5%</tspan></text></g><g data-ac-wrapper-id="81"><text data-ac-wrapper-id="22" font-style="normal" font-variant="normal" font-family="Verdana, Helvetica, Arial, sans-serif" font-size="12" font-weight="normal" fill="#ffffff" letter-spacing="normal" text-decoration="none" direction="ltr" text-anchor="start" style="opacity: 1;" x="349.40283874396266" y="341.4552856992971" aria-hidden="true" pointer-events="none"><tspan dy="0">18.3%</tspan></text></g><g data-ac-wrapper-id="82"><text data-ac-wrapper-id="23" font-style="normal" font-variant="normal" font-family="Verdana, Helvetica, Arial, sans-serif" font-size="12" font-weight="normal" fill="#ffffff" letter-spacing="normal" text-decoration="none" direction="ltr" text-anchor="start" style="opacity: 1;" x="214.97476509820578" y="346.41169474352085" aria-hidden="true" pointer-events="none"><tspan dy="0">23.0%</tspan></text></g><g data-ac-wrapper-id="83"><text data-ac-wrapper-id="24" font-style="normal" font-variant="normal" font-family="Verdana, Helvetica, Arial, sans-serif" font-size="12" font-weight="normal" fill="#ffffff" letter-spacing="normal" text-decoration="none" direction="ltr" text-anchor="start" style="opacity: 1;" x="164.85484589370202" y="295.40771675166224" aria-hidden="true" pointer-events="none"><tspan dy="0">14.4%</tspan></text></g><g data-ac-wrapper-id="84"><text data-ac-wrapper-id="25" font-style="normal" font-variant="normal" font-family="Verdana, Helvetica, Arial, sans-serif" font-size="12" font-weight="normal" fill="#ffffff" letter-spacing="normal" text-decoration="none" direction="ltr" text-anchor="start" style="opacity: 1;" x="224.03004123426547" y="259.2470134755523" aria-hidden="true" pointer-events="none"><tspan dy="0">15.1%</tspan></text></g></g><g data-ac-wrapper-id="29" transform="matrix(1,0,0,1,201.6484375,10)"><text data-ac-wrapper-id="6" font-style="normal" font-variant="normal" font-family="Verdana, Helvetica, Arial, sans-serif" font-size="16" font-weight="normal" fill="#7c868e" letter-spacing="normal" text-decoration="none" direction="ltr" text-anchor="middle" style="opacity: 1;" x="93.3515625" y="16.0859375" aria-hidden="true"><tspan dy="0">Population in The Shire</tspan></text></g><g data-ac-wrapper-id="30" transform="matrix(1,0,0,1,10,559)" clip-path="url(#ac_clip_1)" clipPathunits="userSpaceOnUse"><g data-ac-wrapper-id="31"><g data-ac-wrapper-id="32" transform="matrix(1,0,0,1,10,10)"><text data-ac-wrapper-id="8" font-style="normal" font-variant="normal" font-family="Verdana, Helvetica, Arial, sans-serif" font-size="12" font-weight="normal" fill="#7c868e" letter-spacing="normal" text-decoration="none" direction="ltr" text-anchor="start" style="opacity: 1; cursor: pointer;" x="20" y="12.7724609375" aria-hidden="true"><tspan dy="0">Northfarthing</tspan></text><path data-ac-wrapper-id="33" style="cursor: pointer;" transform="matrix(1,0,0,1,0,0.5)" fill="#64b5f6" stroke="#5091c5" d="M 0 0 L 15 0 15 15 0 15 Z"></path><path data-ac-wrapper-id="34" style="cursor: pointer;" fill="#FFFFFF" fill-opacity="0.00001" stroke="none" d="M 0 0 L 101.935546875 0 101.935546875 16 0 16 0 0 Z"></path></g><g data-ac-wrapper-id="35" transform="matrix(1,0,0,1,126.935546875,10)"><text data-ac-wrapper-id="9" font-style="normal" font-variant="normal" font-family="Verdana, Helvetica, Arial, sans-serif" font-size="12" font-weight="normal" fill="#7c868e" letter-spacing="normal" text-decoration="none" direction="ltr" text-anchor="start" style="opacity: 1; cursor: pointer;" x="20" y="12.7724609375" aria-hidden="true"><tspan dy="0">Westfarthing</tspan></text><path data-ac-wrapper-id="36" style="cursor: pointer;" transform="matrix(1,0,0,1,0,0.5)" fill="#1976d2" stroke="#145ea8" d="M 0 0 L 15 0 15 15 0 15 Z"></path><path data-ac-wrapper-id="37" style="cursor: pointer;" fill="#FFFFFF" fill-opacity="0.00001" stroke="none" d="M 0 0 L 98.2265625 0 98.2265625 16 0 16 0 0 Z"></path></g><g data-ac-wrapper-id="38" transform="matrix(1,0,0,1,240.162109375,10)"><text data-ac-wrapper-id="10" font-style="normal" font-variant="normal" font-family="Verdana, Helvetica, Arial, sans-serif" font-size="12" font-weight="normal" fill="#7c868e" letter-spacing="normal" text-decoration="none" direction="ltr" text-anchor="start" style="opacity: 1; cursor: pointer;" x="20" y="12.7724609375" aria-hidden="true"><tspan dy="0">Eastfarthing</tspan></text><path data-ac-wrapper-id="39" style="cursor: pointer;" transform="matrix(1,0,0,1,0,0.5)" fill="#ef6c00" stroke="#bf5600" d="M 0 0 L 15 0 15 15 0 15 Z"></path><path data-ac-wrapper-id="40" style="cursor: pointer;" fill="#FFFFFF" fill-opacity="0.00001" stroke="none" d="M 0 0 L 94.0078125 0 94.0078125 16 0 16 0 0 Z"></path></g><g data-ac-wrapper-id="41" transform="matrix(1,0,0,1,349.169921875,10)"><text data-ac-wrapper-id="11" font-style="normal" font-variant="normal" font-family="Verdana, Helvetica, Arial, sans-serif" font-size="12" font-weight="normal" fill="#7c868e" letter-spacing="normal" text-decoration="none" direction="ltr" text-anchor="start" style="opacity: 1; cursor: pointer;" x="20" y="12.7724609375" aria-hidden="true"><tspan dy="0">Southfarthing</tspan></text><path data-ac-wrapper-id="42" style="cursor: pointer;" transform="matrix(1,0,0,1,0,0.5)" fill="#ffd54f" stroke="#ccaa3f" d="M 0 0 L 15 0 15 15 0 15 Z"></path><path data-ac-wrapper-id="43" style="cursor: pointer;" fill="#FFFFFF" fill-opacity="0.00001" stroke="none" d="M 0 0 L 103.634765625 0 103.634765625 16 0 16 0 0 Z"></path></g></g><text data-ac-wrapper-id="19" font-style="normal" font-variant="normal" font-family="Verdana, Helvetica, Arial, sans-serif" font-size="12" font-weight="normal" fill="#545f69" letter-spacing="normal" text-decoration="none" direction="ltr" text-anchor="start" style="opacity: 1;" x="0" y="12.064453125" aria-hidden="true" transform="matrix(1,0,0,1,506.271484375,10.7080078125)"><tspan dy="0">1 / 2</tspan></text><path data-ac-wrapper-id="44" fill="#e0e0e0" stroke="none" d="M 496.271484375 10.7080078125 L 496.271484375 25.2919921875 481.6875 18 Z"></path><path data-ac-wrapper-id="45" fill="#9e9e9e" stroke="#757575" d="M 545.416015625 10.7080078125 L 560 18 545.416015625 25.2919921875 Z"></path></g></g></g></svg>